<svg width="18" height="17" viewBox="0 0 18 17" fill="none" xmlns="http://www.w3.org/2000/svg">
<path d="M12.5064 0.130936H6.20967C3.31213 0.130936 0.962402 2.48066 0.962402 5.3782V11.6749C0.962402 14.5725 3.31213 16.9222 6.20967 16.9222H12.5064C15.4039 16.9222 17.7537 14.5725 17.7537 11.6749V5.3782C17.7537 2.48066 15.4039 0.130936 12.5064 0.130936ZM16.1795 11.6749C16.1795 13.7004 14.5318 15.348 12.5064 15.348H6.20967C4.18422 15.348 2.53658 13.7004 2.53658 11.6749V5.3782C2.53658 3.35276 4.18422 1.70512 6.20967 1.70512H12.5064C14.5318 1.70512 16.1795 3.35276 16.1795 5.3782V11.6749Z" fill="#0A9F30"/>
<path d="M9.35797 4.32875C7.03973 4.32875 5.16016 6.20832 5.16016 8.52656C5.16016 10.8448 7.03973 12.7244 9.35797 12.7244C11.6762 12.7244 13.5558 10.8448 13.5558 8.52656C13.5558 6.20832 11.6762 4.32875 9.35797 4.32875ZM9.35797 11.1502C7.91182 11.1502 6.73434 9.97271 6.73434 8.52656C6.73434 7.07937 7.91182 5.90293 9.35797 5.90293C10.8041 5.90293 11.9816 7.07937 11.9816 8.52656C11.9816 9.97271 10.8041 11.1502 9.35797 11.1502Z" fill="#0A9F30"/>
<path d="M13.8709 4.57318C14.1798 4.57318 14.4302 4.32275 14.4302 4.01382C14.4302 3.7049 14.1798 3.45447 13.8709 3.45447C13.562 3.45447 13.3115 3.7049 13.3115 4.01382C13.3115 4.32275 13.562 4.57318 13.8709 4.57318Z" fill="#0A9F30"/>
</svg>
