<svg width="11" height="16" viewBox="0 0 11 16" fill="none" xmlns="http://www.w3.org/2000/svg">
<path fill-rule="evenodd" clip-rule="evenodd" d="M5.35431 6.00116C6.3804 6.00116 7.21221 5.21502 7.21221 4.24526C7.21221 3.2755 6.3804 2.48936 5.35431 2.48936C4.32822 2.48936 3.49641 3.2755 3.49641 4.24526C3.49641 5.21502 4.32822 6.00116 5.35431 6.00116ZM5.35431 8.19604C7.66302 8.19604 9.53459 6.42721 9.53459 4.24526C9.53459 2.0633 7.66302 0.294479 5.35431 0.294479C3.04561 0.294479 1.17404 2.0633 1.17404 4.24526C1.17404 6.42721 3.04561 8.19604 5.35431 8.19604Z" fill="#0A9F30"/>
<path d="M4.28911 11.5994C3.17562 11.3944 2.08794 10.8833 0.946086 10.1509C0.415441 9.81053 0.319092 9.11742 0.707308 8.63499C1.09552 8.15256 1.82044 8.06447 2.35423 8.40041C3.62157 9.19802 4.54407 9.50476 5.37182 9.50454C6.19501 9.50432 7.1048 9.20031 8.34763 8.41003C8.87972 8.07169 9.60525 8.15498 9.99681 8.63499C10.3884 9.11499 10.2969 9.80881 9.76818 10.1518C8.63024 10.8899 7.54205 11.4036 6.42089 11.6049L8.93357 13.9797C9.19056 14.1809 9.35425 14.4849 9.35425 14.8249C9.35425 15.4309 8.83446 15.9222 8.19327 15.9222C7.84692 15.9222 7.536 15.7789 7.32328 15.5515L7.31784 15.5567L5.35208 13.6988L3.39599 15.5475C3.18319 15.7772 2.87065 15.9222 2.52227 15.9222C1.88107 15.9222 1.36128 15.4309 1.36128 14.8249C1.36128 14.5003 1.51041 14.2087 1.74745 14.0078L1.74414 14.0047L4.28911 11.5994Z" fill="#0A9F30"/>
</svg>
