<svg width="21" height="13" viewBox="0 0 21 13" fill="none" xmlns="http://www.w3.org/2000/svg">
<path d="M20.1775 10.9768C20.124 10.8873 19.7931 10.1683 18.2009 8.69056C16.5341 7.14316 16.758 7.39443 18.7657 4.71882C19.9884 3.08932 20.4773 2.09421 20.3243 1.6688C20.1787 1.26329 19.2794 1.37026 19.2794 1.37026L16.2891 1.38768C16.2891 1.38768 16.0677 1.35783 15.9022 1.45609C15.7418 1.55312 15.6385 1.77702 15.6385 1.77702C15.6385 1.77702 15.1646 3.03832 14.5327 4.11056C13.2005 6.37319 12.6669 6.49261 12.4492 6.35205C11.9429 6.0249 12.0698 5.03601 12.0698 4.33446C12.0698 2.14148 12.4019 1.22722 11.4218 0.990877C11.0959 0.912512 10.857 0.860269 10.0249 0.851562C8.95761 0.840367 8.0533 0.855293 7.54206 1.10532C7.20123 1.272 6.93877 1.64392 7.09924 1.66507C7.29701 1.69119 7.74481 1.78572 7.9824 2.10914C8.28964 2.52584 8.27844 3.46373 8.27844 3.46373C8.27844 3.46373 8.45507 6.04481 7.86671 6.36573C7.46245 6.5859 6.90892 6.13686 5.72101 4.08319C5.11274 3.0321 4.65251 1.86907 4.65251 1.86907C4.65251 1.86907 4.56419 1.65263 4.40622 1.53695C4.21466 1.39639 3.94598 1.35161 3.94598 1.35161L1.10245 1.36902C1.10245 1.36902 0.675792 1.38146 0.519061 1.5668C0.379746 1.73224 0.507866 2.07306 0.507866 2.07306C0.507866 2.07306 2.73443 7.28123 5.25455 9.90709C7.56694 12.314 10.1915 12.156 10.1915 12.156H11.3807C11.3807 12.156 11.7402 12.1162 11.923 11.9185C12.0922 11.7369 12.086 11.396 12.086 11.396C12.086 11.396 12.0624 9.80011 12.8037 9.56502C13.5339 9.33366 14.4718 11.1074 15.4656 11.7903C16.2169 12.3066 16.7879 12.1934 16.7879 12.1934L19.4461 12.156C19.4461 12.156 20.8367 12.0702 20.1775 10.9768Z" fill="#0A9F30"/>
</svg>
