<svg width="21" height="15" viewBox="0 0 21 15" fill="none" xmlns="http://www.w3.org/2000/svg">
<path d="M20.0013 2.00405C19.4615 1.04384 18.8757 0.867218 17.6828 0.800053C16.4913 0.719206 13.495 0.685623 10.8992 0.685623C8.29838 0.685623 5.30083 0.719206 4.11051 0.798809C2.9202 0.867218 2.33312 1.04259 1.78834 2.00405C1.23236 2.96302 0.946289 4.61478 0.946289 7.52279C0.946289 7.52527 0.946289 7.52652 0.946289 7.52652C0.946289 7.529 0.946289 7.53025 0.946289 7.53025V7.53274C0.946289 10.4283 1.23236 12.0925 1.78834 13.0415C2.33312 14.0017 2.91895 14.1759 4.10927 14.2567C5.30083 14.3264 8.29838 14.3674 10.8992 14.3674C13.495 14.3674 16.4913 14.3264 17.6841 14.258C18.8769 14.1771 19.4627 14.003 20.0025 13.0428C20.5635 12.0937 20.8471 10.4295 20.8471 7.53398C20.8471 7.53398 20.8471 7.53025 20.8471 7.52776C20.8471 7.52776 20.8471 7.52527 20.8471 7.52403C20.8471 4.61478 20.5635 2.96302 20.0013 2.00405ZM8.40908 11.2579V3.79512L14.6281 7.52652L8.40908 11.2579Z" fill="#0A9F30"/>
</svg>
