<svg width="193" height="38" viewBox="0 0 193 38" fill="none" xmlns="http://www.w3.org/2000/svg">
<path d="M12.838 17.2289L13.696 21.1991H19.9776L22.0919 17.5037L20.3759 27.2154H28.7106L33.3682 0.890015H24.6045L18.4761 11.3652L16.0554 0.890015H7.38368L2.72607 27.2154H11.0607L12.838 17.2289Z" fill="#404041"/>
<path d="M55.5835 27.2154H56.6866H59.3525H65.9405L70.6901 21.1991L73.9075 27.2154H82.8243L75.9299 14.4497L86.7465 0.890015H76.3895L71.8238 6.66206L68.7596 0.890015H59.8427L66.5227 13.3808L58.7396 23.2147L55.5835 27.2154Z" fill="#404041"/>
<path d="M39.4657 27.2154L42.0702 21.1991H46.2376L46.7585 27.2154H52.5499H55.2157L54.6335 23.2147L51.2935 0.890015H44.0007L30.7939 27.2154H39.4657ZM43.9394 16.4348L45.6554 12.4952L45.9312 16.4348H43.9394Z" fill="#404041"/>
<path d="M93.5489 30.0858L96.9195 11.2121H88.5849L83.9272 37.4764H102.742L104.059 30.0858H93.5489Z" fill="#0A9F30"/>
<path d="M110.25 11.2121L105.592 37.4764H113.927L118.585 11.2121H110.25Z" fill="#0A9F30"/>
<path d="M135.743 11.2121L133.782 22.3592L127.807 11.2121H121.433L116.776 37.4764H125.111L127.072 26.4515L132.986 37.4764H139.42L144.078 11.2121H135.743Z" fill="#0A9F30"/>
<path d="M163.751 18.6028L165.038 11.2121H146.928L142.271 37.4764H160.441L161.728 30.0858H151.923L152.352 27.6121H159.338L160.594 20.649H153.608L153.945 18.6028H163.751Z" fill="#0A9F30"/>
<path d="M2.17449 30.0863L0.595703 37.4769H81.0167L82.3343 30.0863H2.17449Z" fill="#0A9F30"/>
<path d="M89.0752 8.34155L90.3928 0.950897H167.071L165.558 8.34155H89.0752Z" fill="#404041"/>
<path d="M180.201 0.950897L179.696 3.83351H176.327L174.53 14.0537H171.535L173.332 3.83351H169.962L170.468 0.950897H180.201Z" fill="#0A9F30"/>
<path d="M182.167 14.0537L180.389 0.950897H183.515L184.545 10.5908L188.943 0.950897H192.369L185.986 14.0537H182.167Z" fill="#0A9F30"/>
</svg>
