<svg width="16" height="16" viewBox="0 0 16 16" fill="none" xmlns="http://www.w3.org/2000/svg">
<path d="M14.8618 7.11023C14.8594 7.10877 14.8566 7.10758 14.8539 7.10628L2.08957 0.875879C1.74456 0.697 1.34099 0.710939 1.00959 0.912779C0.677823 1.11451 0.47998 1.46654 0.47998 1.85482V14.3236C0.47998 14.7119 0.677823 15.0639 1.00959 15.2656C1.18756 15.3739 1.38605 15.4281 1.58394 15.4281C1.75499 15.4281 1.92555 15.3875 2.08174 15.3065L14.8618 9.06812C15.229 8.878 15.4572 8.50279 15.4572 8.08917C15.4572 7.67555 15.2289 7.30034 14.8618 7.11023ZM14.5303 8.40938L1.75023 14.6477C1.58583 14.7329 1.44547 14.6673 1.39275 14.6354C1.34018 14.6033 1.21754 14.5088 1.21754 14.3235V1.85477C1.21754 1.66946 1.34018 1.57492 1.39275 1.54283C1.42586 1.52284 1.49323 1.48972 1.58151 1.48972C1.63397 1.48972 1.69388 1.50144 1.75828 1.53451L14.5256 7.76675C14.6471 7.83104 14.7194 7.95135 14.7194 8.08912C14.7194 8.22818 14.6458 8.34941 14.5303 8.40938Z" fill="#4F4F4F" stroke="#4F4F4F" stroke-width="0.5"/>
</svg>
