<svg width="16" height="27" viewBox="0 0 16 27" fill="none" xmlns="http://www.w3.org/2000/svg">
<path d="M15.8041 14.5615C15.8041 14.2895 15.5837 14.0687 15.3114 14.0687C15.039 14.0687 14.8189 14.2895 14.8189 14.5615C14.8189 17.8387 12.561 20.6141 9.39942 21.2995V19.7938C11.9465 19.1358 13.8333 16.8185 13.8333 14.0687V6.67873C13.8333 3.41872 11.1814 0.766504 7.92136 0.766504C4.66106 0.766504 2.00913 3.41872 2.00913 6.67873V14.0687C2.00913 16.8185 3.89624 19.1358 6.4433 19.7938V21.2995C3.28111 20.6141 1.02385 17.8393 1.02385 14.5612C1.02385 14.2892 0.803398 14.0687 0.531072 14.0687C0.258746 14.0687 0.0385742 14.2892 0.0385742 14.5612C0.0385742 18.3797 2.71926 21.6003 6.4433 22.3039V23.4296H4.47246C3.1145 23.4296 2.00913 24.5347 2.00913 25.8929C2.00913 26.165 2.22958 26.3854 2.50191 26.3854H13.3408C13.6131 26.3854 13.8333 26.165 13.8333 25.8929C13.8333 24.5347 12.7282 23.4296 11.37 23.4296H9.39942V22.3036C13.1232 21.6 15.8041 18.3789 15.8041 14.5615ZM3.01922 14.5615H5.45802C5.73035 14.5615 5.9508 14.3408 5.9508 14.0687C5.9508 13.7967 5.73035 13.5762 5.45802 13.5762H2.99469V12.0982H5.45802C5.73035 12.0982 5.9508 11.8774 5.9508 11.6054C5.9508 11.3334 5.73035 11.1126 5.45802 11.1126H2.99469V9.63485H5.45802C5.73035 9.63485 5.9508 9.41411 5.9508 9.14207C5.9508 8.87002 5.73035 8.64929 5.45802 8.64929H2.99469V7.17123H5.45802C5.73035 7.17123 5.9508 6.95078 5.9508 6.67873C5.9508 6.40669 5.73035 6.18595 5.45802 6.18595H3.01922C3.2673 3.69978 5.3712 1.75206 7.92136 1.75206C10.4715 1.75206 12.5754 3.69978 12.8235 6.18595H10.3847C10.1124 6.18595 9.89191 6.40669 9.89191 6.67873C9.89191 6.95078 10.1124 7.17123 10.3847 7.17123H12.848V8.64929H10.3847C10.1124 8.64929 9.89191 8.87002 9.89191 9.14207C9.89191 9.41411 10.1124 9.63485 10.3847 9.63485H12.848V11.1126H10.3847C10.1124 11.1126 9.89191 11.3334 9.89191 11.6054C9.89191 11.8774 10.1124 12.0982 10.3847 12.0982H12.848V13.5762H10.3847C10.1124 13.5762 9.89191 13.7967 9.89191 14.0687C9.89191 14.3408 10.1124 14.5615 10.3847 14.5615H12.8235C12.605 16.7525 10.9446 18.5241 8.80797 18.9142H8.80712C8.51929 18.9667 8.22385 18.9954 7.92136 18.9954C5.3712 18.9954 3.2673 17.0477 3.01922 14.5615ZM11.37 24.4149C12.0124 24.4149 12.5602 24.8267 12.7637 25.4004H3.0787C3.28224 24.8267 3.83027 24.4149 4.47246 24.4149H6.9358C7.20813 24.4149 7.42858 24.1944 7.42858 23.9224V19.9587C7.59096 19.9722 7.75503 19.981 7.92108 19.981C8.08712 19.981 8.25119 19.9722 8.41386 19.9587V23.9224C8.41386 24.1944 8.63431 24.4149 8.90664 24.4149H11.37Z" fill="#4F4F4F"/>
</svg>
