<svg width="22" height="19" viewBox="0 0 22 19" fill="none" xmlns="http://www.w3.org/2000/svg">
<path d="M18.2808 10.3949C17.935 10.3949 17.6548 10.6752 17.6548 11.0209V17.3736H4.94928V11.0209C4.94928 10.6752 4.66908 10.3949 4.32327 10.3949C3.97747 10.3949 3.69727 10.6752 3.69727 11.0209V17.9996C3.69727 18.3453 3.97747 18.6256 4.32327 18.6256H18.2808C18.6266 18.6256 18.9068 18.3453 18.9068 17.9996V11.0209C18.9068 10.6752 18.6265 10.3949 18.2808 10.3949Z" fill="#4F4F4F"/>
<path d="M21.6136 10.5783L11.7438 0.709678C11.4994 0.465202 11.103 0.465285 10.8585 0.709678L0.989998 10.5783C0.745522 10.8228 0.745522 11.2192 0.989998 11.4636C1.11228 11.5858 1.27254 11.6469 1.43271 11.6469C1.59297 11.6469 1.75314 11.5858 1.87542 11.4636L11.3013 2.03756L20.7284 11.4636C20.9728 11.708 21.3692 11.7079 21.6137 11.4635C21.8581 11.2191 21.8581 10.8227 21.6136 10.5783Z" fill="#4F4F4F"/>
</svg>
