<svg width="0" height="0" class="hidden">
  <symbol viewBox="0 0 22 19" xmlns="http://www.w3.org/2000/svg" id="01">
    <path d="M18.28 10.395a.626.626 0 0 0-.625.626v6.353H4.949V11.02a.626.626 0 1 0-1.252 0V18c0 .345.28.626.626.626h13.958c.346 0 .626-.28.626-.626v-6.98a.626.626 0 0 0-.626-.625z"></path>
    <path d="M21.614 10.578L11.744.71a.626.626 0 0 0-.886 0L.99 10.578a.626.626 0 1 0 .885.886l9.426-9.426 9.427 9.426a.626.626 0 0 0 .886-.886z"></path>
  </symbol>
  <symbol viewBox="0 0 20 23" xmlns="http://www.w3.org/2000/svg" id="02">
    <path d="M1.965.917h12.638a1 1 0 0 1 1 1V21.23a1 1 0 0 1-1 1H1.965a1 1 0 0 1-1-1V1.917a1 1 0 0 1 1-1z" stroke-width="1.2" stroke-linecap="square" stroke-linejoin="round"></path>
    <path d="M13.92 22.232c1.694.05 5.057-.448 4.954-3.62-.104-3.17-.043-9.128 0-12.388h-3.079"  stroke-width="1.2"></path>
    <path d="M3.813 6.224h7.854m-7.854 5.568h7.854m-7.854 2.403h6.384m-6.384 2.696h4.712" stroke-width="1.2" stroke-linecap="round" stroke-linejoin="round"></path>
  </symbol>
  <symbol viewBox="0 0 16 16" xmlns="http://www.w3.org/2000/svg" id="03">
    <path d="M14.862 7.11l-.008-.004L2.09.876a1.093 1.093 0 0 0-1.08.037c-.332.202-.53.554-.53.942v12.469a1.104 1.104 0 0 0 1.104 1.104c.171 0 .342-.04.498-.122l12.78-6.238c.367-.19.595-.565.595-.979a1.1 1.1 0 0 0-.595-.979zm-.332 1.3L1.75 14.647a.36.36 0 0 1-.357-.013.36.36 0 0 1-.175-.312V1.855a.36.36 0 0 1 .175-.312.37.37 0 0 1 .365-.008l12.768 6.232a.359.359 0 0 1 .193.322c0 .14-.073.26-.189.32z" stroke-width=".5"></path>
  </symbol>
  <symbol viewBox="0 0 16 27" xmlns="http://www.w3.org/2000/svg" id="04">
    <path d="M15.804 14.562a.493.493 0 1 0-.985 0 6.863 6.863 0 0 1-5.42 6.737v-1.505a5.923 5.923 0 0 0 4.434-5.725v-7.39A5.919 5.919 0 0 0 7.921.767 5.919 5.919 0 0 0 2.01 6.679v7.39a5.923 5.923 0 0 0 4.434 5.725v1.505a6.862 6.862 0 0 1-5.42-6.738.493.493 0 0 0-.984 0c0 3.819 2.68 7.04 6.404 7.743v1.126h-1.97a2.466 2.466 0 0 0-2.464 2.463c0 .272.22.492.493.492H13.34c.272 0 .492-.22.492-.492a2.466 2.466 0 0 0-2.463-2.463H9.4v-1.126a7.843 7.843 0 0 0 6.404-7.742zm-12.785 0h2.439a.493.493 0 1 0 0-.986H2.995v-1.478h2.463a.493.493 0 0 0 0-.985H2.995V9.635h2.463a.493.493 0 1 0 0-.986H2.995V7.171h2.463a.492.492 0 1 0 0-.985H3.019a4.934 4.934 0 0 1 4.902-4.434 4.934 4.934 0 0 1 4.902 4.434h-2.438a.493.493 0 1 0 0 .985h2.463V8.65h-2.463a.493.493 0 1 0 0 .986h2.463v1.478h-2.463a.493.493 0 0 0 0 .985h2.463v1.478h-2.463a.493.493 0 1 0 0 .986h2.438a4.937 4.937 0 0 1-4.015 4.352 4.934 4.934 0 0 1-5.788-4.353zm8.351 9.853c.642 0 1.19.412 1.394.985H3.079a1.481 1.481 0 0 1 1.393-.985h2.464c.272 0 .493-.22.493-.493V19.96c.162.013.326.022.492.022.166 0 .33-.009.493-.022v3.963c0 .272.22.493.493.493h2.463z"></path>
  </symbol>
</svg>